<?xml version="1.0" encoding="UTF-8"?>
<svg version="1.1" xmlns="http://www.w3.org/2000/svg" width="309" height="196">
<path d="M0 0 C64.02 0 128.04 0 194 0 C194 30.36 194 60.72 194 92 C129.98 92 65.96 92 0 92 C0 61.64 0 31.28 0 0 Z " fill="#75272D" transform="translate(58,55)"/>
<path d="M0 0 C9.6318123 0 16.22267123 2.43779825 23.24609375 9.078125 C29.68498884 16.1336626 32.50294801 23.82940615 32.2421875 33.390625 C31.43419978 42.09604108 28.23325294 48.84907305 22 55 C14.96613069 60.68307434 9.2931659 61.45113902 0 63 C0 42.21 0 21.42 0 0 Z " fill="#75272D" transform="translate(257,72)"/>
<path d="M0 0 C0 20.46 0 40.92 0 62 C-10.53554893 62 -16.09126134 59.85555101 -23.76171875 52.54296875 C-29.66202905 45.83947485 -32.35343797 38.15233544 -32.21875 29.24609375 C-31.28903925 19.69995655 -27.05976641 12.38740771 -20 6 C-13.05309455 0.82677254 -8.81437616 0 0 0 Z " fill="#75272D" transform="translate(53,70)"/>
<path d="M0 0 C7.75249585 4.19494517 13.72598486 10.20726518 17.25 18.3125 C18 21.4375 18 21.4375 18 29.4375 C-2.46 29.4375 -22.92 29.4375 -44 29.4375 C-44 19.86807787 -41.57764794 13.20919672 -35.00390625 6.1953125 C-25.79228701 -1.88505526 -11.54323696 -4.73880254 0 0 Z " fill="#75272D" transform="translate(168,21.5625)"/>
<path d="M0 0 C20.46 0 40.92 0 62 0 C62 10.27172328 59.73644594 15.83050148 52.79296875 23.27734375 C45.85511147 29.9431282 38.65225885 31.49328589 29.25805664 31.50195312 C20.37983501 31.2341763 13.15342892 27.65060682 7 21.25 C1.72460372 14.50419987 0 8.52759632 0 0 Z " fill="#75272D" transform="translate(124,152)"/>
</svg>
